<?xml version="1.0" encoding="UTF-8"?>
<!-- Generator: visioncortex VTracer 0.6.4 -->
<svg version="1.1" xmlns="http://www.w3.org/2000/svg" width="16" height="16">
<path d="M0,0 L2,0 L2,1 L3,1 L3,2 L4,2 L4,3 L5,3 L5,4 L7,4 L7,3 L8,3 L8,2 L9,2 L9,1 L10,1 L10,0 L12,0 L12,2 L11,2 L11,3 L10,3 L10,4 L9,4 L9,5 L8,5 L8,7 L9,7 L9,8 L10,8 L10,9 L11,9 L11,10 L12,10 L12,12 L10,12 L10,11 L9,11 L9,10 L8,10 L8,9 L7,9 L7,8 L5,8 L5,9 L4,9 L4,10 L3,10 L3,11 L2,11 L2,12 L0,12 L0,10 L1,10 L1,9 L2,9 L2,8 L3,8 L3,7 L4,7 L4,5 L3,5 L3,4 L2,4 L2,3 L1,3 L1,2 L0,2 Z " fill="#FFFFFF" transform="translate(2,2)"/>
<path d="M0,0 L1,0 L1,1 L0,1 Z M9,0 L10,0 L10,1 L9,1 Z M1,1 L2,1 L2,2 L1,2 Z M8,1 L9,1 L9,2 L8,2 Z M2,2 L3,2 L3,3 L2,3 Z M7,2 L8,2 L8,3 L7,3 Z M11,2 L12,2 L12,3 L11,3 Z M3,3 L4,3 L4,4 L3,4 Z M6,3 L7,3 L7,4 L6,4 Z M10,3 L11,3 L11,4 L10,4 Z M4,4 L6,4 L6,5 L4,5 Z M9,4 L10,4 L10,5 L9,5 Z M8,5 L9,5 L9,6 L8,6 Z M7,6 L8,6 L8,8 L7,8 Z M2,7 L3,7 L3,8 L2,8 Z M1,8 L2,8 L2,9 L1,9 Z M8,8 L9,8 L9,9 L8,9 Z M0,9 L1,9 L1,10 L0,10 Z M4,9 L5,9 L5,10 L4,10 Z M9,9 L10,9 L10,10 L9,10 Z M-1,10 L0,10 L0,11 L-1,11 Z M3,10 L4,10 L4,11 L3,11 Z M10,10 L11,10 L11,11 L10,11 Z M-2,11 L-1,11 L-1,12 L-2,12 Z M2,11 L3,11 L3,12 L2,12 Z M11,11 L12,11 L12,12 L11,12 Z M1,12 L2,12 L2,13 L1,13 Z M0,13 L1,13 L1,14 L0,14 Z " fill="#FFFFFF" opacity="0.5019608" transform="translate(3,1)"/>
<path d="M0,0 L1,0 L1,1 L0,1 Z M1,1 L2,1 L2,2 L1,2 Z M2,2 L3,2 L3,3 L2,3 Z M3,3 L4,3 L4,4 L3,4 Z M4,4 L5,4 L5,5 L4,5 Z " fill="#FFFFFF" opacity="0.5058824" transform="translate(8,10)"/>
<path d="M0,0 L1,0 L1,1 L0,1 Z M1,1 L2,1 L2,2 L1,2 Z M2,2 L3,2 L3,3 L2,3 Z M3,3 L4,3 L4,4 L3,4 Z M4,4 L5,4 L5,5 L4,5 Z " fill="#FFFFFF" opacity="0.5058824" transform="translate(1,3)"/>
<path d="M0,0 L1,0 L1,1 L0,1 Z M-1,1 L0,1 L0,2 L-1,2 Z " fill="#FFFFFF" opacity="0.5019608" transform="translate(14,13)"/>
<path d="M0,0 L1,0 L1,1 L0,1 Z M1,1 L2,1 L2,2 L1,2 Z " fill="#FFFFFF" opacity="0.5058824" transform="translate(1,13)"/>
<path d="M0,0 L1,0 L1,1 L0,1 Z M1,1 L2,1 L2,2 L1,2 Z " fill="#FFFFFF" opacity="0.5058824" transform="translate(13,1)"/>
<path d="M0,0 L1,0 L1,1 L0,1 Z M-1,1 L0,1 L0,2 L-1,2 Z " fill="#FFFFFF" opacity="0.5019608" transform="translate(2,1)"/>
</svg>
